<?xml version="1.0" standalone="no"?>
<!DOCTYPE svg PUBLIC "-//W3C//DTD SVG 20010904//EN"
 "http://www.w3.org/TR/2001/REC-SVG-20010904/DTD/svg10.dtd">
<svg version="1.0" xmlns="http://www.w3.org/2000/svg"
 width="514.000000pt" height="514.000000pt" viewBox="0 0 514.000000 514.000000"
 preserveAspectRatio="xMidYMid meet">
<metadata>
Created by potrace 1.11, written by Peter Selinger 2001-2013
</metadata>
<g transform="translate(0.000000,514.000000) scale(0.100000,-0.100000)"
fill="#000000" stroke="none">
<path d="M2708 5115 c-2 -1 -37 -5 -78 -9 -444 -35 -951 -331 -1216 -712 -162
-232 -222 -404 -260 -743 -3 -30 -7 -62 -9 -72 -2 -10 -7 -49 -10 -86 -6 -61
-18 -92 -122 -298 -64 -126 -163 -322 -220 -435 -56 -113 -103 -217 -103 -232
0 -44 30 -94 70 -117 34 -19 53 -21 203 -21 l166 0 4 -327 c2 -181 7 -341 11
-358 34 -143 73 -220 149 -296 113 -112 262 -160 507 -163 l95 -1 3 -353 c2
-326 4 -352 20 -353 9 0 99 -1 200 -1 l182 -1 0 -261 0 -261 85 0 85 0 -1 225
c0 124 0 241 0 261 l1 36 143 0 142 -1 5 -260 5 -261 82 0 82 0 0 175 c0 96 0
214 0 261 l1 87 145 -1 145 0 2 -261 3 -261 83 0 82 -1 0 262 0 261 210 0
c115 0 212 2 215 5 3 3 5 341 5 753 l0 747 100 99 c220 217 375 485 464 804
14 50 28 104 31 120 31 161 39 240 39 365 1 105 -10 237 -24 310 -6 30 -13 66
-15 80 -8 47 -53 186 -84 266 -175 437 -559 796 -1011 944 -103 34 -136 43
-205 55 -11 1 -48 8 -83 14 -57 11 -316 23 -324 16z m-1106 -1729 c34 -22 68
-91 68 -137 0 -53 -38 -110 -90 -137 -138 -70 -282 77 -211 217 43 83 153 110
233 57z m1729 -119 c108 -32 194 -105 242 -206 79 -166 27 -449 -109 -600
-102 -114 -223 -168 -353 -157 -88 7 -121 25 -121 65 0 46 22 56 124 56 111 1
166 23 242 101 60 61 87 110 113 202 64 235 -23 402 -229 435 -40 7 -112 -20
-155 -58 -60 -52 -115 -40 -117 26 -1 26 7 40 37 66 96 83 202 106 326 70z
m-872 -2245 c13 -10 30 -33 36 -52 45 -134 -149 -212 -210 -84 -50 107 77 207
174 136z m457 3 c66 -43 63 -148 -6 -188 -54 -32 -132 -14 -159 37 -58 108 62
218 165 151z m439 11 c113 -48 79 -216 -45 -216 -120 0 -155 168 -45 216 39
17 48 17 90 0z"/>
</g>
</svg>
