<?xml version="1.0" standalone="no"?>
<!DOCTYPE svg PUBLIC "-//W3C//DTD SVG 20010904//EN"
 "http://www.w3.org/TR/2001/REC-SVG-20010904/DTD/svg10.dtd">
<svg version="1.0" xmlns="http://www.w3.org/2000/svg"
 width="700.000000pt" height="700.000000pt" viewBox="0 0 700.000000 700.000000"
 preserveAspectRatio="xMidYMid meet">
<metadata>
Created by potrace 1.11, written by Peter Selinger 2001-2013
</metadata>
<g transform="translate(0.000000,700.000000) scale(0.100000,-0.100000)"
fill="#000000" stroke="none">
<path d="M3448 6275 c-2 -1 -57 -6 -123 -9 -141 -9 -160 -11 -200 -19 -16 -4
-43 -9 -60 -12 -129 -21 -300 -83 -420 -152 -307 -176 -483 -467 -530 -878 -6
-54 -7 -381 -1 -430 2 -16 7 -55 10 -85 4 -30 9 -66 11 -80 2 -14 7 -45 10
-70 11 -85 16 -125 20 -150 2 -14 7 -48 10 -76 3 -28 7 -59 9 -70 2 -10 7 -48
12 -84 4 -36 8 -67 9 -70 1 -3 5 -34 9 -70 5 -36 10 -73 12 -83 4 -23 13 -121
19 -204 15 -211 93 -437 214 -617 l54 -81 1 -287 1 -288 -48 0 c-41 0 -49 3
-59 25 -6 14 -14 24 -18 23 -4 -2 -48 -23 -98 -48 -66 -33 -90 -49 -86 -60 16
-47 79 -133 145 -201 345 -348 1063 -487 1683 -325 218 57 402 143 536 250
100 81 243 267 221 289 -5 5 -49 29 -97 53 l-89 44 -13 -26 c-12 -22 -19 -25
-60 -22 l-47 3 0 282 0 282 58 87 c73 112 152 285 171 376 9 45 15 70 20 86 8
30 17 107 31 277 4 44 8 82 10 85 1 3 6 32 10 65 6 57 10 86 20 165 11 78 17
118 25 175 5 33 12 85 15 115 3 30 8 66 10 80 2 14 6 44 9 68 3 23 9 61 12 85
4 23 8 60 10 82 6 66 6 377 0 423 -3 23 -8 61 -11 83 -13 106 -66 282 -113
374 -72 142 -183 274 -307 365 -152 112 -405 206 -630 235 -87 10 -370 26
-377 20z"/>
<path d="M1860 1805 l0 -55 273 2 272 3 1 53 0 52 -273 0 -273 0 0 -55z"/>
<path d="M4593 1805 l-1 -55 274 0 274 0 0 55 0 55 -273 0 -272 0 -2 -55z"/>
<path d="M3410 1653 c-80 -23 -158 -98 -190 -180 -53 -142 13 -308 149 -376
63 -30 208 -32 261 -2 168 95 219 295 114 447 -37 53 -118 105 -184 117 -64
12 -92 11 -150 -6z"/>
<path d="M1973 1642 l-113 -3 0 -54 0 -55 273 0 272 0 1 55 1 55 -76 0 c-42 1
-114 2 -161 3 -47 1 -136 1 -197 -1z"/>
<path d="M4775 1640 l-181 -5 0 -52 -1 -53 273 0 274 0 0 54 0 55 -92 3 c-51
2 -174 1 -273 -2z"/>
</g>
</svg>
